<?xml version="1.0" encoding="iso-8859-1"?>
<!-- Generator: Adobe Illustrator 19.0.0, SVG Export Plug-In . SVG Version: 6.00 Build 0)  -->
<svg version="1.1" id="Capa_1" xmlns="http://www.w3.org/2000/svg" xmlns:xlink="http://www.w3.org/1999/xlink" x="0px" y="0px"
	 viewBox="0 0 512.004 512.004" style="enable-background:new 0 0 512.004 512.004;" xml:space="preserve">
<g>
	<g>
		<g>
			<path d="M369.403,151.135L369.403,151.135c2.264,0.003,4.435-0.897,6.034-2.5l82.992-82.992c3.332-3.332,3.332-8.735,0-12.067
				c-3.332-3.332-8.734-3.332-12.067,0l-82.992,82.992c-2.44,2.44-3.169,6.11-1.849,9.298
				C362.842,149.055,365.953,151.134,369.403,151.135z"/>
			<path d="M511.763,463.925c-1.366-12.889-8.484-24.471-19.367-31.51v0l-66.857-43.266l-69.159-69.158
				C479.127,185.809,511.55,11.808,511.871,10.04c0.491-2.749-0.393-5.565-2.368-7.539s-4.791-2.858-7.54-2.365
				c-1.765,0.316-175.767,32.747-309.948,155.493L122.865,86.48L79.591,19.606C72.55,8.725,60.969,1.609,48.08,0.244
				C35.191-1.121,22.376,3.412,13.212,12.577l-0.633,0.633C3.414,22.374-1.119,35.19,0.246,48.078
				C1.61,60.967,8.727,72.548,19.608,79.59l66.873,43.273l69.036,69.037C80.766,270.333,23.401,353.881,1.508,416.59
				c-3.397,9.654-0.952,20.4,6.287,27.633l59.937,59.937c7.235,7.263,17.995,9.729,27.671,6.342
				c62.721-21.897,146.269-79.262,224.703-154.014l69.036,69.036l43.269,66.873c7.041,10.883,18.623,18.001,31.513,19.366
				c12.89,1.365,25.706-3.169,34.87-12.336l0.633-0.633C508.595,489.63,513.128,476.814,511.763,463.925z M492.337,19.669
				c-9.782,41.732-48.004,178.618-148.021,288.259l-13.235-13.235c37.083-41.479,44.505-94.068,16.118-122.55l-6.833-6.837
				c-27.986-27.887-81.798-20.517-123.009,15.665l-13.28-13.28C313.719,67.672,450.601,29.451,492.337,19.669z M315.287,204.06
				l-6.842-6.842c-13.937-13.775-32.624-21.682-52.215-22.094c27.646-13.646,55.95-13.809,72.078,2.261l6.813,6.817
				c15.992,16.042,15.774,44.083,2.126,71.476C336.795,236.297,328.937,217.826,315.287,204.06z M315.917,279.529l-83.252-83.251
				c21.952-8.597,46.906-3.499,63.726,13.02v0l6.817,6.817C319.717,232.824,324.713,257.749,315.917,279.529z M28.883,65.264
				c-6.568-4.23-10.86-11.213-11.667-18.983c-0.838-7.766,1.895-15.492,7.429-21.004l0.633-0.633
				c5.521-5.521,13.241-8.252,21.005-7.429c7.764,0.823,14.741,5.111,18.982,11.666l40.013,61.838l-14.558,14.558L28.883,65.264z
				 M89.766,494.389c-3.462,1.228-7.322,0.354-9.917-2.246l-60.037-60.037c-2.574-2.595-3.427-6.439-2.192-9.879
				C38.727,361.759,94.576,280.63,167.589,203.97l13.475,13.475c-40.09,44.023-56.943,64.498-71.818,84.195
				c-23.657,30.638-44.297,63.493-61.629,98.104c-6.479,13.572-3.622,29.762,7.113,40.296l17.204,17.204
				c6.664,6.765,15.758,10.582,25.254,10.6c5.212,0.004,10.357-1.173,15.05-3.442c53.897-25.812,120.035-74.223,182.433-133.35
				l13.366,13.366C231.377,417.43,150.247,473.279,89.766,494.389z M126.1,410.735l-24.829-24.829
				c-7.297-6.64-11.575-15.965-11.849-25.827c9.834-15.533,21.045-31.711,33.445-48.161c14.512-19.214,31.009-39.255,70.281-82.391
				l89.455,89.455c-40.198,38.569-83.948,73.255-130.669,103.596v0C142.069,422.31,132.741,418.033,126.1,410.735z M131.279,435.034
				c-9.08,5.194-17.936,9.916-26.442,13.989c-7.037,3.308-15.398,1.776-20.804-3.813l-17.271-17.27
				c-5.574-5.415-7.086-13.776-3.763-20.8c4.028-8.426,8.768-17.305,14.015-26.466c3.036,6.425,7.16,12.278,12.19,17.298
				l24.829,24.829C119.039,427.836,124.872,431.974,131.279,435.034z M395.816,408.064L103.941,116.189l12.25-12.25L408.07,395.814
				l-6.127,6.125L395.816,408.064z M487.362,486.727l-0.633,0.633c-5.52,5.521-13.24,8.252-21.004,7.429
				c-7.764-0.823-14.74-5.111-18.98-11.666l-40.017-61.833l14.566-14.562l61.833,40.017c6.556,4.24,10.845,11.216,11.667,18.981
				S492.885,481.208,487.362,486.727L487.362,486.727z"/>
		</g>
	</g>
</g>
<g>
</g>
<g>
</g>
<g>
</g>
<g>
</g>
<g>
</g>
<g>
</g>
<g>
</g>
<g>
</g>
<g>
</g>
<g>
</g>
<g>
</g>
<g>
</g>
<g>
</g>
<g>
</g>
<g>
</g>
</svg>
