<svg height="512" viewBox="0 0 60 57" width="512" xmlns="http://www.w3.org/2000/svg"><g id="Page-1" fill="none" fill-rule="evenodd"><g id="021---Kayak" fill="rgb(0,0,0)" fill-rule="nonzero"><path id="Shape" d="m59 46c-.256 0-.5.009-.725.026 1.7286163-2.5477095 2.1746541-5.7542301 1.207-8.677-1.4861916-3.8978983-4.9487237-6.6993009-9.071-7.339-.2840477-.0405647-.5716875.0444862-.788.233-.2184767.1875203-.3468369.4591494-.353.747 0 .2-.208 5.01-9 5.01h-4.27v-4.393l1.622 1.193c.5809938.4267182 1.2793123.6641465 2 .68h.088c1.4478106-.0007671 2.7442622-.896858 3.2566626-2.2509636.5124003-1.3541056.133949-2.8839881-.9506626-3.8430364l.534-.353c.3156656-.1887477.502245-.5355397.4858084-.9029636s-.2332361-.6961708-.5644942-.8559786c-.3312582-.1598078-.7235038-.1248805-1.0213142.0909422l-1.113.736-5.3-3.916c-.7057477-1.3026871-1.761435-2.3822729-3.048-3.117-.009-.006-.013-.016-.022-.022s-.03-.01-.045-.018c-.065-.037-.129-.077-.2-.112 2.0360602-1.2782706 3.2737161-3.5119412 3.278-5.916-.0075271-.5398763-.0790259-1.076957-.213-1.6 1.0430725-.7675711 1.4736749-2.11923514 1.0668076-3.34871661s-1.558768-2.05745416-2.8538076-2.05128339h-4.066c.0408645-.33181971.0628998-.66568785.066-1 0-2.851-1.29-5-3-5s-3 2.149-3 5c.0031002.33431215.0251355.66818029.066 1h-.066c-1.2950396-.00617077-2.4469403.82180192-2.8538076 2.05128339s.0237351 2.58114551 1.0668076 3.34871661c-.1339741.523043-.2054729 1.0601237-.213 1.6.002547 2.4058141 1.241419 4.6414494 3.28 5.919-.072.038-.144.076-.215.116-.009.006-.02.006-.029.012l-.009.009c-.8268884.4662518-1.559987 1.0820275-2.162 1.816l-5.842 6.151c-.7269008.7299335-1.0962282 1.7424756-1.01 2.769.0810239 1.0250619.6148031 1.9606418 1.456 2.552l3.215 2.3c-.4132367.0783407-.8062097.239953-1.155.475l-1.127.744c-6.493-.768-6.669-4.7-6.672-4.859-.0000028-.2898154-.1257384-.565375-.3446411-.7553081-.2189027-.189933-.50943887-.2755559-.7963589-.2346919-4.12296507.6387884-7.58683557 3.4392752-9.075 7.337-.96824708 2.9211713-.52487738 6.1263647 1.2 8.675-.222-.017-.46-.026-.714-.026-.55228475 0-1 .4477153-1 1s.44771525 1 1 1c1.03756078-.0317074 2.06222634.2366987 2.951.773l.009.007.017.007.159.088c1.23356271.7652344 2.66269118 1.1560389 4.114 1.125 1.44985101.0311683 2.8773677-.3608081 4.108-1.128.3745788-.2190099.7657819-.4082586 1.17-.566 1.0659454 1.207317 2.8599619 1.4413934 4.2.548l.373-.246c.177.09.356.171.536.269 1.2301341.7635925 2.6554641 1.1537084 4.103 1.123 1.4513088.0310389 2.8804373-.3597656 4.114-1.125 1.9320461-1.1672806 4.3519539-1.1672806 6.284 0 2.5334644 1.4993074 5.6825356 1.4993074 8.216 0 1.9320461-1.1672806 4.3519539-1.1672806 6.284 0 2.5332731 1.498697 5.6817269 1.498697 8.215 0 .9380377-.5994902 2.0341445-.9042546 3.147-.875.5522847 0 1-.4477153 1-1s-.4477153-1-1-1zm-25-10h-5.011l5.011-3.312zm6.586-7.226c.3219982.2350971.5371553.5887119.5979481.9827394.0607928.3940276-.0377807.7960465-.2739481 1.1172606-.2828369.4013523-.7504588.6312068-1.241.61-.3123527-.0074408-.6149287-.1103934-.867-.295l-1.202-.889 2.666-1.762zm-2.028-1.5-2.558 1.694v-2.968c0-.214-.014-.426-.031-.637zm-10.558-7.274c.6520653.0007575 1.2996156.1081758 1.917.318l-1.917 2.882-1.919-2.882c.6181641-.2094647 1.2663124-.3168702 1.919-.318zm-3-15c0-2.035.8-3 1-3s1 .965 1 3c-.0019699.33488924-.0290458.66915949-.081 1h-1.838c-.0519542-.33084051-.0790301-.66511076-.081-1zm-2 3h10c.5522847 0 1 .44771525 1 1s-.4477153 1-1 1h-10c-.5522847 0-1-.44771525-1-1s.4477153-1 1-1zm0 5c.0029911-.3363987.0411994-.6715596.114-1h1.886v1c0 .5522847.4477153 1 1 1s1-.4477153 1-1v-1h5.886c.0728006.3284404.1110089.6636013.114 1 0 2.7614237-2.2385763 5-5 5s-5-2.2385763-5-5zm-5.994 16.63c-.0371201-.450546.1273042-.8943817.449-1.212l5.91-6.226c.2795698-.34316.5965276-.6540805.945-.927l2.025 3.04c.3707986.5571766.9957188.8919499 1.665.8919499s1.2942014-.3347733 1.665-.8919499l2.021-3.035c.1953714.1508869.3813817.3135207.557.487 1.1288329 1.1229176 1.7615083 2.6507728 1.757 4.243v4.29l-5.1 3.375c-.1982459-.8113878-.6821087-1.5242246-1.363-2.008l-3.639-2.6 2.083-2.075c.2531227-.2522295.3524548-.6203385.260579-.9656639-.0918758-.3453255-.3610015-.6154041-.706-.7085001-.3449985-.0930959-.7134563.0049345-.966579.257164l-2.92 2.91c-.2083686.2077574-.3146619.4967394-.290577.7899978.024085.2932584.1761035.5610256.415577.7320022l4.6 3.292c.6145952.4425433.8028949 1.273807.439 1.938-.0279418.0540151-.0614575.104959-.1.152-.119676.1722913-.2765406.3154858-.459.419-.188743.116197-.4028767.1848295-.624.2-.036 0-.091 0-.127.008-.312988.0003074-.6178589-.0995641-.87-.285l-7.009-5.011c-.3567764-.2498015-.5833997-.6458422-.618-1.08zm-5.618 17.493c-.9344698.600214-2.02774616.90576-3.138.877-1.11397376.02956-2.21122087-.2755792-3.15-.876l-.035-.024c-3.5-3.737-3.386-7.006-2.661-9.1 1.10439362-2.8857451 3.53788282-5.0579976 6.53-5.829.434 1.532 1.807 4.138 6.068 5.266l-3.355 2.214c-1.4983123.9952415-1.90617425 3.0166431-.911 4.515l1.623 2.451c-.359.168-.675.342-.971.506zm4.3.246c-.326382-.0662321-.6122701-.2612705-.793-.541l-.166-.25-.008-.013-2.317-3.5c-.3838421-.5773551-.2282052-1.356434.348-1.742l6.9-4.552c.2336341-.1613766.5179103-.2324456.8-.2l2.237.2.719.514-3.613 2.391c-.4333156.3140232-.5426168.9135221-.2480043 1.3602618.2946125.4467398.8887093.5823671 1.3480043.3077382l4.213-2.788-1.1 3.413c-.0876414.2718603-.2636306.5066299-.5.667l-6.882 4.541c-.2746605.1871598-.6129178.2563243-.939.192zm32.912-.245c-2.5332731-1.498697-5.6817269-1.498697-8.215 0-1.9320461 1.1672806-4.3519539 1.1672806-6.284 0-1.2328091-.7643228-2.6608063-1.1547555-4.111-1.124-1.4466708-.0302287-2.8709969.3602451-4.1 1.124-.9389308.6000811-2.0360717.9051908-3.15.876-.9502565.0318038-1.891443-.1938184-2.724-.653l4.6-3.035c.6134042-.4101399 1.0712303-1.0144703 1.3-1.716l1.471-4.596h12.883c8.082 0 10.227-3.828 10.795-5.823 2.9900593.7698785 5.4223218 2.939798 6.527 5.823.725 2.094.839 5.366-2.674 9.1l-.032.017c-1.931674 1.1673267-4.351326 1.1673267-6.283 0z"/><path id="Shape" d="m59 53c-1.4498553-.0305612-2.8774779.359864-4.11 1.124-1.9334716 1.1673209-4.3545284 1.1673209-6.288 0-2.5339649-1.5000966-5.6840351-1.5000966-8.218 0-1.9326054 1.1665618-4.3523946 1.1665618-6.285 0-1.2314378-.7649324-2.658665-1.1554395-4.108-1.124-1.4494567-.0313134-2.8767399.3595565-4.108 1.125-.9366157.5985269-2.030836.9032508-3.142.875-1.1105404.0282787-2.2041295-.2764634-3.14-.875-1.2312292-.7646701-2.6579602-1.1554839-4.107-1.125-1.4490398-.0304839-2.8757708.3603299-4.107 1.125-.9358705.5985366-2.02945963.9032787-3.14.875-1.11054037.0282787-2.2041295-.2764634-3.14-.875-1.23122917-.7646701-2.65796018-1.1554839-4.107-1.125-.55228475 0-1 .4477153-1 1s.44771525 1 1 1c1.11054037-.0282787 2.2041295.2764634 3.14.875 1.23122917.7646701 2.65796018 1.1554839 4.107 1.125 1.44903982.0304839 2.8757708-.3603299 4.107-1.125.9358705-.5985366 2.0294596-.9032787 3.14-.875 1.1105404-.0282787 2.2041295.2764634 3.14.875 1.2312292.7646701 2.6579602 1.1554839 4.107 1.125 1.4494353.03114 2.87667-.3597166 4.108-1.125 1.9322335-1.1666076 4.3517665-1.1666076 6.284 0 2.5336555 1.4999181 5.6833445 1.4999181 8.217 0 1.9327276-1.1674128 4.3532724-1.1674128 6.286 0 2.5348794 1.4993739 5.6851206 1.4993739 8.22 0 .9373105-.5986301 2.0321972-.9033457 3.144-.875.5522847 0 1-.4477153 1-1s-.4477153-1-1-1z"/><path id="Shape" d="m6.955 35.283c-1.60990451 1.0322912-2.68351466 2.7211696-2.935 4.617-.183 1.884.641 3.827 2.449 5.776.2429406.2620543.60723128.3745952.95564727.2952296.34841599-.0793655.62802462-.3385801.7335-.68.10547539-.3414199.02079333-.7131753-.22214727-.9752296-1.4-1.512-2.05-2.933-1.922-4.269.21539478-1.2967048.97824608-2.4380673 2.094-3.133.44322552-.3211941.54585434-.9390443.23027016-1.3862815-.31558418-.4472373-.93209217-.5576426-1.38327016-.2477185z"/><path id="Shape" d="m55.979 39.95c-.2397646-1.9140311-1.3157729-3.6232656-2.938-4.667-.4512166-.3186683-1.0753317-.2112166-1.394.24s-.2112166 1.0753317.24 1.394c1.1286941.7046288 1.8951607 1.8652783 2.1 3.18.125 1.29-.523 2.71-1.926 4.222l1.467 1.36c1.806-1.949 2.63-3.892 2.451-5.729z"/></g></g></svg>